<?xml version="1.0" encoding="UTF-8" standalone="no"?> <!-- Created with Vectornator for iOS (http://vectornator.io/) --><!DOCTYPE svg PUBLIC "-//W3C//DTD SVG 1.1//EN" "http://www.w3.org/Graphics/SVG/1.1/DTD/svg11.dtd">
<svg xmlns:xlink="http://www.w3.org/1999/xlink" version="1.1" xml:space="preserve" style="fill-rule:nonzero;clip-rule:evenodd;stroke-linecap:round;stroke-linejoin:round;" width="100%" xmlns:vectornator="http://vectornator.io" height="100%" viewBox="0 0 496.125 66.0271" xmlns="http://www.w3.org/2000/svg">
<metadata>
<vectornator:setting value="false" key="WDDisplayWhiteBackground"/>
<vectornator:setting key="IsTimeLapseWatermarkDisabled" value="false"/>
<vectornator:setting key="VNPencilOnly" value="false"/>
<vectornator:setting key="WDIsolateActiveLayer" value="false"/>
<vectornator:setting key="WDUnits" value="Millimeters"/>
<vectornator:setting key="WDOutlineMode" value="false"/>
<vectornator:setting key="WDCMYKEnabledKey" value="false"/>
<vectornator:setting value="false" key="WDSnapToEdges"/>
<vectornator:setting key="UndoHistoryDisabled" value="false"/>
<vectornator:setting key="WDGuidesVisible" value="true"/>
<vectornator:setting key="WDDynamicGuides" value="false"/>
<vectornator:setting key="WDRulersVisible" value="true"/>
<vectornator:setting key="WDSnapToGrid" value="false"/>
<vectornator:setting value="false" key="WDSnapToPoints"/>
<vectornator:setting value="true" key="VNDimensionsVisible"/>
<vectornator:setting value="true" key="VNSnapToGuides"/>
</metadata>
<defs/>
<g vectornator:layerName="Camada 1" id="Camada 1">
<g opacity="1">
<path fill="#ffffff" d="M37.2978+38.0031C37.2978+38.5221+37.1091+38.9114+36.7317+39.1709C36.3542+39.4304+36.1655+39.7725+36.1655+40.1971C36.1655+40.3859+36.2598+40.6218+36.4486+40.9049C35.788+40.9049+35.3398+41.1172+35.1039+41.5418C34.8679+41.9665+34.632+42.4383+34.3961+42.9573L33.4761+42.9573C33.2401+42.9573+33.0514+43.0045+32.9099+43.0989C32.7683+43.1932+32.6386+43.323+32.5206+43.4881C32.4026+43.6533+32.2493+43.901+32.0606+44.2312C31.1641+44.42+30.303+44.7149+29.4773+45.1159C28.6516+45.517+27.8495+45.9416+27.071+46.3898C26.2925+46.8381+25.5022+47.2863+24.7001+47.7345C23.898+48.1828+23.0723+48.5484+22.223+48.8315C21.7984+49.5393+21.185+50.1055+20.3829+50.5301L20.1706+50.5301C19.9346+50.5773+19.7341+50.5419+19.569+50.424C19.4038+50.306+19.2033+50.247+18.9674+50.247C18.8259+50.247+18.7315+50.2706+18.6843+50.3178C17.2688+51.2614+15.6882+51.7333+13.9425+51.7333C13.4706+51.7333+13.0224+51.6979+12.5978+51.6271C12.1731+51.5563+11.7249+51.5209+11.253+51.5209C11.1115+51.5209+11.0171+51.5681+10.97+51.6625L10.8284+51.9456C10.7812+52.04+10.7222+52.1343+10.6515+52.2287C10.5807+52.3231+10.4038+52.3702+10.1207+52.3702C9.60166+52.3702+9.08265+52.2995+8.56364+52.1579C8.04463+52.0164+7.50203+51.9928+6.93584+52.0871C5.85064+51.4738+5.00136+50.884+4.38798+50.3178C3.77461+49.7516+3.20842+48.9023+2.68941+47.7699C2.4535+47.2509+2.13501+46.7555+1.73396+46.2837C1.33291+45.8119+1.03802+45.2928+0.849287+44.7267C0.802104+44.5379+0.73133+44.1959+0.636965+43.7004C0.5426+43.205+0.448235+42.6742+0.353869+42.108C0.259504+41.5418+0.176935+40.9992+0.106161+40.4802C0.0353869+39.9612-2.84217e-14+39.6073-2.84217e-14+39.4186C-2.84217e-14+38.8524+0.0353869+38.298+0.106161+37.7554C0.176935+37.2128+0.259504+36.6584+0.353869+36.0922C0.636965+34.2993+0.837491+32.4946+0.955448+30.678C1.0734+28.8615+1.46266+27.104+2.12322+25.4054C2.02885+24.8864+1.98167+24.391+1.98167+23.9191L1.98167+22.3621C1.98167+21.4656+1.86371+20.7107+1.6278+20.0973C2.00526+19.484+2.19399+18.7998+2.19399+18.0449C2.19399+17.1956+1.84012+16.7002+1.13238+16.5586L1.13238+16.3463C1.13238+15.3555+0.802104+14.577+0.141548+14.0108C0.141548+12.3594+0.554395+11.1209+1.38009+10.2952C2.20579+9.46946+3.30278+8.74992+4.67108+8.13655C4.85981+7.85346+4.93058+7.61754+4.8834+7.42881C5.21368+7.52318+5.52036+7.61754+5.80346+7.71191C6.08655+7.80627+6.36965+7.85346+6.65275+7.85346C7.12457+7.85346+7.54922+7.78268+7.92668+7.64113C8.06822+8.20733+8.43389+8.5494+9.02367+8.66736C9.61345+8.78531+10.0971+8.93866+10.4745+9.12739L10.4745+10.0474C10.4745+11.5101+10.8284+12.902+11.5361+14.2231C11.3474+14.6006+11.2295+15.0016+11.1823+15.4263C11.1351+15.8509+11.1115+16.252+11.1115+16.6294C11.1115+17.1956+11.1351+17.7618+11.1823+18.328C11.2295+18.8942+11.253+19.4368+11.253+19.9558C11.253+20.522+11.1941+21.0882+11.0761+21.6544C10.9582+22.2206+10.6869+22.716+10.2622+23.1406C10.215+23.754+10.1796+24.4499+10.1561+25.2284C10.1325+26.007+10.0853+26.7973+10.0145+27.5994C9.94373+28.4015+9.81398+29.18+9.62525+29.9349C9.43652+30.6898+9.15342+31.3032+8.77596+31.775C8.72878+32.4828+8.69339+33.2023+8.6698+33.9336C8.64621+34.665+8.63442+35.3609+8.63442+36.0215C8.63442+37.0595+8.69339+38.2862+8.81135+39.7017C8.92931+41.1172+9.24779+42.2968+9.7668+43.2404C10.0027+43.6179+10.4627+43.901+11.1469+44.0897C11.831+44.2784+12.3854+44.3728+12.8101+44.3728C13.3291+44.3728+13.8599+44.2902+14.4025+44.1251C14.9451+43.9599+15.3343+43.665+15.5703+43.2404C15.8534+43.2876+16.0421+43.4291+16.1364+43.665C16.2308+43.901+16.396+44.0897+16.6319+44.2312C19.3213+43.0989+22.0107+42.0137+24.7001+40.9756C27.3895+39.9376+30.0317+38.7345+32.6268+37.3662C33.0042+37.5549+33.4053+37.6493+33.8299+37.6493C34.3017+37.6493+34.7736+37.6021+35.2454+37.5077C35.7172+37.4134+36.1891+37.3662+36.6609+37.3662L37.1563+37.3662C37.2507+37.6493+37.2978+37.8616+37.2978+38.0031Z" opacity="1"/>
<path fill="#ffffff" d="M81.6023+11.1798L81.6023+11.4629C81.272+11.5573+81.1069+11.7932+81.1069+12.1707C80.5879+12.4066+80.0453+12.5835+79.4791+12.7015C78.9129+12.8194+78.3703+12.9964+77.8513+13.2323C77.3323+13.1851+76.8015+13.1497+76.2589+13.1261C75.7163+13.1025+75.1855+13.0907+74.6665+13.0907C73.251+13.0907+71.8355+13.1379+70.42+13.2323C69.0045+13.3266+67.5891+13.3266+66.1736+13.2323C65.513+13.6097+64.7935+13.9046+64.015+14.1169C63.2365+14.3293+62.4933+14.4354+61.7856+14.4354C61.2194+14.4354+60.724+14.3647+60.2994+14.2231C59.167+14.7893+57.9284+15.2611+56.5837+15.6386C55.239+16.016+53.8825+16.3817+52.5142+16.7356C51.1459+17.0894+49.8366+17.4905+48.5863+17.9387C47.3359+18.387+46.2389+19.0121+45.2953+19.8142C45.2009+20.4748+45.1302+21.1236+45.083+21.7605C45.0358+22.3975+45.0122+23.0227+45.0122+23.636C45.0122+24.2966+45.0476+24.91+45.1184+25.4762C45.1891+26.0423+45.3425+26.6085+45.5784+27.1747C45.8143+27.2691+46.0856+27.3399+46.3923+27.3871C46.699+27.4342+46.9703+27.4578+47.2062+27.4578C47.4421+27.4578+47.678+27.4224+47.9139+27.3517C48.1498+27.2809+48.315+27.1275+48.4093+26.8916C49.1171+26.7973+49.8248+26.7619+50.5326+26.7855C51.2403+26.8091+51.948+26.8209+52.6558+26.8209C53.3635+26.8209+54.0595+26.7973+54.7436+26.7501C55.4278+26.7029+56.1001+26.5849+56.7607+26.3962C57.5156+26.2075+58.2587+26.0895+58.99+26.0423C59.7214+25.9952+60.4409+25.948+61.1486+25.9008C61.8564+25.8536+62.5877+25.771+63.3426+25.6531C64.0976+25.5351+64.8761+25.2874+65.6782+24.91C66.2915+25.1459+66.9167+25.2638+67.5537+25.2638C68.1906+25.2638+68.8158+25.311+69.4292+25.4054C69.7595+25.6413+70.0308+25.9008+70.2431+26.1839C70.4554+26.467+70.5616+26.7973+70.5616+27.1747C70.5616+27.8353+70.3257+28.4958+69.8538+29.1564C69.382+29.817+69.0045+30.4303+68.7215+30.9965L67.9429+30.9965C66.8106+30.9965+65.7136+31.1499+64.652+31.4565C63.5903+31.7632+62.5287+32.1171+61.4671+32.5182C60.4055+32.9192+59.3439+33.2731+58.2823+33.5798C57.2207+33.8865+56.1237+34.0398+54.9913+34.0398C54.8026+34.0398+54.6964+34.146+54.6728+34.3583C54.6492+34.5706+54.5903+34.7239+54.4959+34.8183C54.26+34.7711+53.9061+34.7475+53.4343+34.7475C52.3491+34.7475+51.3111+34.8655+50.3202+35.1014C49.3294+35.3373+48.315+35.4553+47.277+35.4553C46.9939+35.4553+46.7108+35.4435+46.4277+35.4199C46.1446+35.3963+45.8615+35.3609+45.5784+35.3137C45.3425+35.6912+45.0358+35.9389+44.6583+36.0569C44.2809+36.1748+43.927+36.3753+43.5967+36.6584C43.4552+37.0831+43.3726+37.6021+43.349+38.2155C43.3254+38.8288+43.3018+39.454+43.2782+40.091C43.2546+40.7279+43.1957+41.3295+43.1013+41.8957C43.0069+42.4619+42.8182+42.9101+42.5351+43.2404C42.5823+43.4763+42.771+43.5589+43.1013+43.4881C43.4316+43.4173+43.5967+43.5707+43.5967+43.9481C43.5967+44.3728+43.5495+44.821+43.4552+45.2928C43.3608+45.7647+43.3136+46.2365+43.3136+46.7083C43.3136+47.6048+43.4198+48.5838+43.6321+49.6454C43.8444+50.707+44.1747+51.6861+44.6229+52.5826C45.0712+53.479+45.6728+54.2222+46.4277+54.8119C47.1826+55.4017+48.1262+55.6966+49.2586+55.6966C50.0136+55.6966+50.7213+55.5551+51.3818+55.272C52.0424+54.9889+52.585+54.517+53.0096+53.8565L53.3635+53.7857C53.5522+53.7857+53.7292+53.8093+53.8943+53.8565C54.0595+53.9037+54.2364+53.9273+54.4251+53.9273C54.7082+53.9273+55.0739+53.7503+55.5221+53.3965C55.9704+53.0426+56.4658+52.6297+57.0084+52.1579C57.551+51.6861+58.1054+51.2261+58.6716+50.7778C59.2377+50.3296+59.7803+50.0111+60.2994+49.8224C60.6296+49.1618+60.9481+48.5013+61.2548+47.8407C61.5615+47.1801+62.0215+46.6611+62.6349+46.2837L62.6349+44.2312C63.1067+43.7122+63.6139+43.2404+64.1565+42.8158C64.6991+42.3911+65.112+41.8485+65.3951+41.188C65.631+41.2823+65.8551+41.3531+66.0674+41.4003C66.2798+41.4475+66.5039+41.4711+66.7398+41.4711C66.9757+41.4711+67.2234+41.4475+67.4829+41.4003C67.7424+41.3531+67.9901+41.2823+68.226+41.188C68.6035+41.707+68.8984+42.285+69.1107+42.9219C69.323+43.5589+69.5943+44.1605+69.9246+44.7267C69.5+45.5759+69.0045+46.5904+68.4384+47.7699C67.8722+48.9495+67.2588+50.1291+66.5982+51.3086C65.9377+52.4882+65.2417+53.6088+64.5104+54.6704C63.7791+55.732+63.0595+56.5459+62.3518+57.1121C62.2103+57.2536+61.9036+57.4188+61.4317+57.6075C60.9127+57.985+60.4409+58.3506+60.0163+58.7045C59.5916+59.0584+59.1906+59.4712+58.8131+59.943C57.4448+60.3677+56.1355+60.9339+54.8852+61.6416C53.6348+62.3494+52.3963+63.0335+51.1695+63.6941C50.6033+63.5525+49.99+63.4817+49.3294+63.4817C48.7632+63.4817+48.197+63.5171+47.6308+63.5879C47.0646+63.6587+46.4513+63.6941+45.7907+63.6941C45.602+63.4581+45.3307+63.3048+44.9768+63.234C44.6229+63.1633+44.4932+62.9155+44.5876+62.4909C42.9833+62.3965+41.6858+61.9601+40.695+61.1816C39.7042+60.4031+38.8667+59.4476+38.1825+58.3152C37.4984+57.1829+36.944+55.9561+36.5193+54.635C36.0947+53.3139+35.6465+52.04+35.1746+50.8132L35.1746+50.6009C35.1746+50.365+35.269+50.2234+35.4577+50.1762C35.6465+50.1291+35.7408+49.9875+35.7408+49.7516C35.7408+49.6572+35.7172+49.5865+35.67+49.5393C35.5285+49.0203+35.4105+48.572+35.3162+48.1946C35.2218+47.8171+35.1746+47.3689+35.1746+46.8499C35.1746+46.0949+35.2218+45.3518+35.3162+44.6205C35.4105+43.8892+35.4577+43.146+35.4577+42.3911C35.4577+41.6362+35.3634+40.9756+35.1746+40.4094C35.3634+40.1735+35.5167+39.8551+35.6347+39.454C35.7526+39.0529+35.8352+38.6401+35.8824+38.2155C35.9295+37.7908+35.9649+37.3662+35.9885+36.9415C36.0121+36.5169+36.0711+36.1394+36.1655+35.8091C35.9767+35.2901+35.8116+34.8301+35.67+34.4291C35.5285+34.028+35.4577+33.5444+35.4577+32.9782L35.4577+32.4828C35.9295+31.6807+36.3306+30.855+36.6609+30.0057C36.9912+29.1564+37.345+28.2835+37.7225+27.3871L37.7225+27.1747C37.7225+25.8064+37.6753+24.4381+37.5809+23.0698C37.4866+21.7015+37.4394+20.3333+37.4394+18.965L37.4394+17.6203C37.4394+17.1484+37.463+16.7002+37.5102+16.2755C37.8876+16.0868+38.1707+15.8273+38.3595+15.497C38.5482+15.1668+38.8313+14.9073+39.2087+14.7185L41.5443+14.7185L41.9689+14.0108C42.1105+13.7749+42.2048+13.5154+42.252+13.2323C42.771+13.0907+43.2782+12.8902+43.7737+12.6307C44.2691+12.3712+44.7291+12.0999+45.1537+11.8168C45.8143+11.4393+46.4159+11.0973+46.9585+10.7906C47.5011+10.4839+48.0437+10.2244+48.5863+10.0121C49.1289+9.79974+49.7069+9.6228+50.3202+9.48126C50.9336+9.33971+51.6414+9.22175+52.4435+9.12739C52.8209+9.12739+53.0686+9.05661+53.1866+8.91506C53.3045+8.77352+53.4815+8.60838+53.7174+8.41965C54.2836+8.51401+54.8498+8.59658+55.416+8.66736C55.9822+8.73813+56.5483+8.77352+57.1145+8.77352C58.2469+8.77352+59.3085+8.56119+60.2994+8.13655C61.7148+8.13655+63.1185+8.11296+64.5104+8.06578C65.9023+8.01859+67.306+7.995+68.7215+7.995C69.9482+7.995+71.1749+8.04219+72.4017+8.13655C73.6284+8.23092+74.8316+8.39606+76.0112+8.63197C76.4358+8.49042+76.9076+8.41965+77.4266+8.41965C77.9928+8.41965+78.5708+8.47862+79.1606+8.59658C79.7504+8.71454+80.3284+8.72633+80.8946+8.63197C80.9417+9.15098+81.0715+9.58742+81.2838+9.94129C81.4961+10.2952+81.6023+10.708+81.6023+11.1798Z" opacity="1"/>
<path d="M151.952+17.0541C151.81+17.4787+151.539+17.7736+151.138+17.9387C150.737+18.1039+150.324+18.2336+149.899+18.328C149.474+18.4224+149.085+18.5757+148.731+18.788C148.377+19.0003+148.153+19.3424+148.059+19.8142L147.917+19.885C147.729+19.885+147.599+19.826+147.528+19.7081C147.457+19.5901+147.398+19.4722+147.351+19.3542C147.304+19.2363+147.245+19.1183+147.174+19.0003C147.104+18.8824+146.997+18.8234+146.856+18.8234C146.337+18.8234+145.83+18.8706+145.334+18.965C144.839+19.0593+144.355+19.1065+143.883+19.1065C143.176+19.1065+142.539+19.0121+141.972+18.8234C141.642+18.9178+141.465+19.1301+141.442+19.4604C141.418+19.7907+141.265+20.003+140.982+20.0973C140.746+20.1917+140.463+20.2271+140.132+20.2035C139.802+20.1799+139.472+20.2153+139.141+20.3097L136.877+20.8759C136.122+21.0646+135.367+21.1589+134.612+21.1589C134.187+21.1589+133.881+21.1354+133.692+21.0882C132.984+21.6544+132.182+22.0672+131.286+22.3267C130.389+22.5862+129.457+22.8221+128.49+23.0345C127.523+23.2468+126.579+23.5181+125.659+23.8484C124.739+24.1786+123.925+24.6976+123.217+25.4054C122.84+25.311+122.51+25.2638+122.227+25.2638C121.613+25.2638+121.071+25.3936+120.599+25.6531C120.127+25.9126+119.631+26.1603+119.112+26.3962C118.877+26.4906+118.641+26.5378+118.405+26.5378C118.169+26.5378+117.909+26.5849+117.626+26.6793C117.343+26.7737+117.166+26.927+117.095+27.1393C117.025+27.3517+116.871+27.5522+116.635+27.7409C116.635+29.4395+116.801+31.1263+117.131+32.8013C117.461+34.4762+117.626+36.163+117.626+37.8616L117.626+38.1447C117.721+38.9468+117.98+39.6899+118.405+40.3741C118.829+41.0582+119.042+41.7542+119.042+42.4619C119.042+42.6978+118.995+42.9573+118.9+43.2404C120.127+43.5235+120.941+44.1487+121.342+45.1159C121.743+46.0832+122.073+47.1212+122.333+48.23C122.592+49.3388+122.946+50.365+123.394+51.3086C123.843+52.2523+124.727+52.8421+126.048+53.078C126.143+53.5498+126.213+54.0334+126.261+54.5288C126.308+55.0243+126.331+55.5079+126.331+55.9797C126.331+56.6403+126.261+57.289+126.119+57.926C125.978+58.563+125.694+59.1409+125.27+59.6599C124.562+59.7071+124.043+59.7307+123.713+59.7307C123.382+59.7307+122.887+59.8723+122.227+60.1554C121.283+59.5892+120.445+58.9404+119.714+58.2091C118.983+57.4778+118.299+56.6992+117.662+55.8735C117.025+55.0478+116.399+54.1986+115.786+53.3257C115.173+52.4528+114.512+51.6153+113.804+50.8132C111.351+51.4266+108.838+51.8394+106.267+52.0518C103.696+52.2641+101.136+52.3702+98.588+52.3702C98.4937+52.4646+98.3521+52.5118+98.1634+52.5118C97.9747+52.5118+97.7977+52.5236+97.6326+52.5472C97.4674+52.5708+97.3259+52.6179+97.2079+52.6887C97.09+52.7595+97.0546+52.8892+97.1018+53.078C96.7715+52.8892+96.4058+52.7595+96.0048+52.6887C95.6037+52.6179+95.2381+52.5826+94.9078+52.5826C94.6719+52.5826+94.436+52.5944+94.2001+52.6179C93.9641+52.6415+93.7282+52.7241+93.4923+52.8657C91.6994+52.5354+89.9654+52.0753+88.2904+51.4856C86.6155+50.8958+84.9051+50.4122+83.1593+50.0347C83.1593+49.6572+83.065+49.3859+82.8762+49.2208C82.6875+49.0557+82.5224+48.8079+82.3808+48.4777C80.3991+47.2509+78.736+45.7647+77.3913+44.0189C76.0465+42.2732+75.4922+40.1499+75.7281+37.6493L75.2326+36.6584C75.2326+35.9035+75.3978+35.3609+75.7281+35.0306C75.5393+34.7004+75.2091+34.3701+74.7372+34.0398C75.1619+33.3792+75.5393+32.6951+75.8696+31.9874C76.1999+31.2796+76.4358+30.5247+76.5774+29.7226C76.6245+29.4867+76.6481+29.2744+76.6481+29.0856C76.6481+28.8969+76.6953+28.6846+76.7897+28.4487C76.884+28.1656+77.0138+27.8471+77.1789+27.4932C77.3441+27.1393+77.4974+26.8209+77.639+26.5378C78.3939+24.9336+79.2314+23.3883+80.1514+21.9021C81.0715+20.4158+82.2393+19.1301+83.6547+18.0449C83.7491+17.2428+83.985+16.5704+84.3625+16.0278C84.7399+15.4852+85.1528+14.9898+85.601+14.5416C86.0493+14.0934+86.4975+13.6333+86.9457+13.1615C87.394+12.6897+87.736+12.1235+87.972+11.4629C88.9156+10.6608+89.8711+9.88231+90.8383+9.12739C91.8055+8.37246+92.6194+7.47599+93.28+6.43798C94.1293+6.15488+94.9314+5.78922+95.6863+5.34098C96.4412+4.89275+97.0782+4.31476+97.5972+3.60702C98.7296+3.51266+99.8502+3.30033+100.959+2.97006C102.068+2.63978+103.236+2.47464+104.462+2.47464C104.981+2.47464+105.606+2.5808+106.338+2.79312C107.069+3.00544+107.624+3.37111+108.001+3.89012C108.048+3.98448+108.072+4.10244+108.072+4.24399L108.143+4.59786C108.19+4.69222+108.249+4.77479+108.319+4.84557C108.39+4.91634+108.52+4.92813+108.709+4.88095C108.709+5.91897+108.591+6.96878+108.355+8.03039C108.119+9.092+107.506+9.9059+106.515+10.4721C105.901+10.2834+105.241+10.189+104.533+10.189C103.589+10.189+102.728+10.3659+101.95+10.7198C101.171+11.0737+100.416+11.4747+99.685+11.923C98.9537+12.3712+98.2106+12.8194+97.4557+13.2677C96.7007+13.7159+95.8986+14.0344+95.0493+14.2231C94.955+14.6006+94.8724+14.9426+94.8016+15.2493C94.7309+15.556+94.7427+15.8981+94.837+16.2755C94.6011+16.2755+94.4242+16.2402+94.3062+16.1694C94.1883+16.0986+94.0113+16.0632+93.7754+16.0632C93.4451+16.0632+93.221+16.252+93.1031+16.6294C92.9851+17.0069+92.8789+17.3136+92.7846+17.5495C91.8881+17.9269+91.145+18.4577+90.5552+19.1419C89.9654+19.826+89.4228+20.5574+88.9274+21.3359C88.432+22.1144+87.9012+22.8575+87.335+23.5653C86.7688+24.273+86.0611+24.8156+85.2118+25.1931C84.8343+26.7029+84.4686+28.1892+84.1148+29.6518C83.7609+31.1145+83.3481+32.5771+82.8762+34.0398C83.0178+34.606+83.0886+35.1958+83.0886+35.8091C83.0886+36.5641+83.0178+37.2482+82.8762+37.8616C83.1121+38.239+83.3481+38.6873+83.584+39.2063L84.4333+40.8341C84.7164+41.4003+85.0112+41.9193+85.3179+42.3911C85.6246+42.8629+85.9195+43.2168+86.2026+43.4527C86.7216+43.8302+87.5237+44.1723+88.6089+44.4789C89.6941+44.7856+90.6614+45.2928+91.5106+46.0006C91.605+46.0006+91.723+45.9888+91.8645+45.9652C92.0061+45.9416+92.124+45.9298+92.2184+45.9298C92.7846+45.9298+93.3979+46.0714+94.0585+46.3545C94.7191+46.6375+95.1437+46.7791+95.3324+46.7791C97.9747+46.7791+100.853+46.6022+103.967+46.2483C107.081+45.8944+109.959+45.458+112.601+44.939C112.696+44.4672+112.743+44.0661+112.743+43.7358C112.743+43.1224+112.648+42.5209+112.46+41.9311C112.271+41.3413+111.964+40.8341+111.54+40.4094C111.54+39.7017+111.551+38.994+111.575+38.2862C111.599+37.5785+111.61+36.8708+111.61+36.163C111.61+34.9834+111.563+33.7331+111.469+32.412C111.375+31.0909+111.139+29.8641+110.761+28.7318L110.62+28.7318C110.006+28.7318+109.452+28.8851+108.956+29.1918C108.461+29.4985+107.954+29.6518+107.435+29.6518C107.152+29.6518+106.916+29.581+106.727+29.4395C106.161+30.1+105.477+30.5955+104.675+30.9257C103.872+31.256+103.023+31.5509+102.127+31.8104C101.23+32.0699+100.346+32.3412+99.4727+32.6243C98.5998+32.9074+97.8095+33.3085+97.1018+33.8275C96.7243+33.6859+96.3705+33.6152+96.0402+33.6152C95.7099+33.6152+95.3914+33.6387+95.0847+33.6859C94.778+33.7331+94.436+33.7803+94.0585+33.8275C93.0677+32.9782+92.5723+31.9166+92.5723+30.6426C92.5723+29.9821+92.6784+29.3333+92.8907+28.6964C93.1031+28.0594+93.3979+27.4578+93.7754+26.8916C94.0113+26.7501+94.2944+26.6675+94.6247+26.6439C94.955+26.6203+95.2853+26.5732+95.6155+26.5024C95.9458+26.4316+96.2171+26.3254+96.4294+26.1839C96.6418+26.0423+96.7715+25.7828+96.8187+25.4054C96.9602+25.5469+97.0782+25.6177+97.1726+25.6177C97.2669+25.6177+97.3613+25.5941+97.4557+25.5469C97.55+25.4997+97.6444+25.4762+97.7387+25.4762C97.8331+25.4762+97.9157+25.5233+97.9865+25.6177C98.0572+25.7121+98.0926+25.8064+98.0926+25.9008C100.121+24.8156+102.198+23.8955+104.321+23.1406C106.444+22.3857+108.603+21.7015+110.797+21.0882C112.991+20.4748+115.196+19.8968+117.414+19.3542C119.631+18.8116+121.825+18.21+123.996+17.5495C124.326+17.2664+124.68+17.0541+125.057+16.9125C125.435+16.771+125.765+16.5586+126.048+16.2755C126.379+16.4643+126.78+16.5586+127.251+16.5586C127.912+16.5586+128.632+16.4289+129.41+16.1694C130.189+15.9099+130.837+15.5914+131.356+15.2139C131.545+15.2611+131.71+15.2847+131.852+15.2847L132.347+15.2847C133.291+15.2847+134.176+15.1432+135.001+14.8601C135.827+14.577+136.641+14.1995+137.443+13.7277L137.797+13.7277C139.259+13.7277+140.71+13.5625+142.149+13.2323C143.588+12.902+145.063+12.7369+146.573+12.7369C148.507+12.7369+150.206+13.2323+151.668+14.2231L151.668+15.0724C151.668+15.4499+151.68+15.7919+151.704+16.0986C151.727+16.4053+151.81+16.7238+151.952+17.0541Z" fill="#ffffff" opacity="1"/>
<path opacity="1" fill="#ffffff" d="M222.018+43.8774C221.923+44.5851+221.676+45.1277+221.275+45.5052C220.874+45.8826+220.413+46.2365+219.894+46.5668C219.659+46.5196+219.434+46.4842+219.222+46.4606C219.01+46.437+218.786+46.4252+218.55+46.4252C217.087+46.378+215.707+46.5668+214.41+46.9914C213.112+47.4161+211.779+47.7227+210.411+47.9115C209.939+48.0058+209.503+48.0412+209.101+48.0176C208.7+47.994+208.288+48.0294+207.863+48.1238C206.353+48.3597+204.749+48.5484+203.05+48.69C201.352+48.8315+199.653+49.0085+197.955+49.2208C196.256+49.4331+194.593+49.6926+192.965+49.9993C191.337+50.306+189.816+50.7424+188.4+51.3086C188.259+51.2143+188.117+51.1081+187.975+50.9901C187.834+50.8722+187.669+50.8132+187.48+50.8132C187.008+50.8132+186.56+50.884+186.135+51.0255C185.711+51.1671+185.286+51.2143+184.861+51.1671C184.39+51.4502+183.882+51.6507+183.34+51.7687C182.797+51.8866+182.255+51.981+181.712+52.0518C181.169+52.1225+180.639+52.2287+180.12+52.3702C179.601+52.5118+179.105+52.7713+178.633+53.1487C178.256+52.96+177.796+52.8539+177.253+52.8303C176.711+52.8067+176.345+52.6297+176.156+52.2995C175.071+52.8185+173.927+53.1487+172.724+53.2903C171.521+53.4318+170.306+53.479+169.079+53.4318C168.277+53.3847+167.357+53.2667+166.319+53.078C165.281+52.8892+164.243+52.6179+163.205+52.2641C162.167+51.9102+161.199+51.4856+160.303+50.9901C159.406+50.4947+158.722+49.8931+158.25+49.1854C157.92+48.7136+157.684+48.1946+157.543+47.6284C157.401+47.0622+157.071+46.6375+156.552+46.3545C156.693+45.2693+156.859+44.2076+157.047+43.1696C157.236+42.1316+157.425+41.07+157.613+39.9848C158.557+39.1827+159.454+38.3334+160.303+37.4369C161.152+36.5405+161.954+35.5968+162.709+34.606C163.606+34.1813+164.443+33.6623+165.222+33.049C166+32.4356+166.779+31.8104+167.557+31.1735C168.336+30.5365+169.114+29.9113+169.893+29.2979C170.671+28.6846+171.509+28.142+172.405+27.6701C172.547+27.3399+172.747+27.0686+173.007+26.8562C173.266+26.6439+173.538+26.4316+173.821+26.2193C174.104+26.007+174.363+25.771+174.599+25.5115C174.835+25.252+175+24.9336+175.095+24.5561C176.746+23.5653+178.185+22.3149+179.412+20.8051C180.639+19.2952+181.441+17.5967+181.818+15.7094C181.016+15.0488+180.108+14.6124+179.093+14.4C178.079+14.1877+177.029+14.0344+175.944+13.94C175+13.8928+174.021+13.8928+173.007+13.94C171.992+13.9872+170.966+13.9636+169.928+13.8692C168.89+14.1995+167.817+14.4118+166.708+14.5062C165.599+14.6006+164.502+14.6831+163.417+14.7539C162.332+14.8247+161.258+14.9662+160.197+15.1786C159.135+15.3909+158.109+15.7801+157.118+16.3463C156.929+16.3463+156.752+16.3227+156.587+16.2755C156.422+16.2284+156.245+16.2048+156.056+16.2048C154.547+16.1576+153.131+16.4525+151.81+17.0894C150.489+17.7264+149.191+18.3516+147.917+18.965C147.823+19.1537+147.776+19.2952+147.776+19.3896C147.776+19.6727+147.835+19.944+147.953+20.2035C148.071+20.463+148.13+20.7343+148.13+21.0174C148.083+21.0646+148.059+21.1118+148.059+21.1589C148.059+21.2061+148.035+21.2533+147.988+21.3005C147.941+21.5364+147.882+21.7487+147.811+21.9375C147.741+22.1262+147.658+22.3385+147.564+22.5744C147.045+24.0843+146.761+25.5705+146.714+27.0332C146.667+28.2599+146.667+29.4631+146.714+30.6426C146.761+31.8222+146.761+33.0254+146.714+34.2521C146.62+35.762+146.384+37.1774+146.007+38.4986C146.242+39.6309+146.455+40.8223+146.644+42.0726C146.832+43.323+147.068+44.5615+147.351+45.7883C147.634+47.015+147.976+48.2064+148.377+49.3623C148.779+50.5183+149.309+51.6153+149.97+52.6533C149.923+52.7477+149.946+52.8185+150.041+52.8657C150.135+52.9128+150.229+52.9364+150.324+52.9364L150.89+52.9364C151.126+52.9364+151.22+53.0308+151.173+53.2195C151.267+53.3611+151.338+53.4908+151.385+53.6088C151.433+53.7267+151.527+53.8329+151.668+53.9273C151.763+54.0688+151.763+54.2575+151.668+54.4935C151.621+55.4371+151.385+56.31+150.961+57.1121C150.536+57.9142+150.277+58.7871+150.182+59.7307C149.616+59.8723+149.097+59.943+148.625+59.943C147.823+59.8959+147.115+59.6717+146.502+59.2707C145.889+58.8696+145.322+58.386+144.803+57.8198C144.284+57.2536+143.789+56.6756+143.317+56.0859C142.845+55.4961+142.326+54.9889+141.76+54.5642C141.43+53.2431+141.111+51.7805+140.805+50.1762C140.498+48.572+139.991+47.2037+139.283+46.0714C139.472+45.6467+139.566+45.1277+139.566+44.5143C139.613+43.5707+139.531+42.6388+139.318+41.7188C139.106+40.7987+139.047+39.8668+139.141+38.9232C139.141+38.4042+139.2+37.8852+139.318+37.3662C139.436+36.8472+139.519+36.3282+139.566+35.8091C139.613+35.007+139.531+34.2285+139.318+33.4736C139.106+32.7187+139.024+31.9402+139.071+31.1381C139.118+30.7606+139.2+30.3949+139.318+30.0411C139.436+29.6872+139.613+29.3687+139.849+29.0856C139.613+28.5194+139.543+27.9768+139.637+27.4578C139.684+26.6557+139.778+25.9008+139.92+25.1931C140.062+24.4853+140.156+23.7776+140.203+23.0698C140.203+22.6924+140.179+22.3267+140.132+21.9728C140.085+21.619+140.014+21.2769+139.92+20.9466L139.283+20.7343C139+20.7343+138.729+20.8051+138.469+20.9466C138.21+21.0882+137.986+21.2533+137.797+21.442C137.608+21.6308+137.443+21.7841+137.301+21.9021C137.16+22.02+137.018+22.079+136.877+22.079C136.782+22.079+136.676+22.0672+136.558+22.0436C136.44+22.02+136.334+22.0082+136.24+22.0082C136.145+22.0082+135.968+22.1026+135.709+22.2913C135.449+22.4801+135.143+22.6806+134.789+22.8929C134.435+23.1052+134.093+23.3176+133.763+23.5299C133.432+23.7422+133.173+23.8719+132.984+23.9191C132.465+23.8248+132.052+23.6478+131.746+23.3883C131.439+23.1288+131.156+22.8693+130.896+22.6098C130.637+22.3503+130.366+22.1144+130.082+21.9021C129.799+21.6898+129.445+21.6072+129.021+21.6544C128.879+21.3713+128.797+21.0646+128.773+20.7343C128.75+20.404+128.761+20.0737+128.808+19.7435L128.808+18.6111C129.139+17.9977+129.575+17.4905+130.118+17.0894C130.66+16.6884+131.238+16.3463+131.852+16.0632L133.692+15.2139C134.305+14.9308+134.871+14.577+135.39+14.1523L136.027+14.1523C136.877+14.1995+137.62+14.0344+138.257+13.6569C138.894+13.2795+139.495+12.843+140.062+12.3476C140.628+11.8522+141.206+11.345+141.795+10.826C142.385+10.307+143.034+9.9059+143.742+9.6228C144.261+9.85872+144.803+10.0592+145.37+10.2244C145.936+10.3895+146.526+10.4957+147.139+10.5429C147.752+10.5429+148.389+10.4485+149.05+10.2598C149.71+10.071+150.229+9.71717+150.607+9.19816C150.843+9.29252+151.043+9.3515+151.208+9.37509C151.374+9.39869+151.574+9.41048+151.81+9.41048C152.518+9.45766+153.225+9.3515+153.933+9.092C154.641+8.83249+155.325+8.51401+155.986+8.13655C156.929+8.18373+157.861+8.12476+158.781+7.95962C159.701+7.79448+160.621+7.61754+161.541+7.42881C162.461+7.24008+163.382+7.06315+164.302+6.89801C165.222+6.73287+166.154+6.67389+167.097+6.72107C168.654+6.76826+170.188+6.62671+171.697+6.29643C173.207+5.96615+174.741+5.8482+176.298+5.94256C177.383+5.98974+178.456+6.07231+179.518+6.19027C180.58+6.30823+181.653+6.34361+182.738+6.29643C183.352+6.57953+183.906+6.82723+184.401+7.03956C184.897+7.25188+185.522+7.31086+186.277+7.21649C187.787+8.49042+189.155+9.97667+190.382+11.6752L190.382+12.8784C190.335+13.9636+190.146+15.0252+189.816+16.0632C189.485+17.1012+189.096+18.1275+188.648+19.1419C188.2+20.1563+187.716+21.1472+187.197+22.1144C186.678+23.0816+186.183+24.0371+185.711+24.9807C182.644+27.7645+179.577+30.5247+176.51+33.2613C173.443+35.9979+170.282+38.6401+167.026+41.188C166.932+41.6598+166.802+42.0844+166.637+42.4619C166.472+42.8394+166.366+43.2404+166.319+43.665C166.319+43.901+166.342+44.0897+166.389+44.2312C166.72+44.3256+167.015+44.5025+167.274+44.762C167.534+45.0215+167.616+45.3636+167.522+45.7883L168.159+45.7883C168.395+45.7883+168.513+45.8826+168.513+46.0714L169.645+46.1421C171.438+46.2365+173.231+46.1893+175.024+46.0006C176.817+45.8119+178.622+45.5995+180.438+45.3636C182.255+45.1277+184.059+44.9036+185.852+44.6913C187.645+44.4789+189.438+44.3492+191.231+44.302C191.656+44.1605+192.104+44.0425+192.576+43.9481C193.048+43.8538+193.472+43.665+193.85+43.382L194.062+43.382C194.392+43.382+194.64+43.4763+194.805+43.665C194.97+43.8538+195.218+43.9717+195.548+44.0189C195.784+44.0189+196.032+43.9717+196.291+43.8774C196.551+43.783+196.822+43.7122+197.105+43.665C197.766+43.4763+198.462+43.3584+199.193+43.3112C199.924+43.264+200.644+43.1932+201.352+43.0989C204.088+42.8629+206.801+42.7096+209.491+42.6388C212.18+42.5681+214.87+42.226+217.559+41.6126C217.795+41.9429+218.125+42.167+218.55+42.285C218.974+42.4029+219.423+42.5209+219.894+42.6388C220.366+42.7568+220.803+42.8865+221.204+43.0281C221.605+43.1696+221.876+43.4527+222.018+43.8774Z"/>
<path fill="#ffffff" d="M254.574+51.0255C254.432+51.6861+254.137+52.2169+253.689+52.6179C253.241+53.019+252.71+53.3375+252.097+53.5734C251.483+53.8093+250.858+53.9626+250.221+54.0334C249.584+54.1042+249.006+54.1396+248.487+54.1396C248.251+54.1396+248.027+54.1278+247.815+54.1042C247.602+54.0806+247.378+54.0688+247.142+54.0688C246.907+54.0688+246.789+54.1868+246.789+54.4227C246.789+54.6586+246.671+54.8237+246.435+54.9181C246.199+54.8237+245.963+54.753+245.727+54.7058C245.491+54.6586+245.255+54.635+245.019+54.635C244.689+54.635+244.37+54.6586+244.064+54.7058C243.757+54.753+243.462+54.7765+243.179+54.7765C242.802+54.7765+242.53+54.7294+242.365+54.635C242.2+54.5406+242.059+54.4345+241.941+54.3165C241.823+54.1986+241.705+54.0688+241.587+53.9273C241.469+53.7857+241.292+53.6678+241.056+53.5734C240.726+53.4318+240.454+53.4083+240.242+53.5026C240.03+53.597+239.711+53.4554+239.287+53.078C238.72+52.6061+238.237+52.0282+237.836+51.344C237.435+50.6599+237.045+49.9403+236.668+49.1854C236.29+48.4305+235.889+47.6756+235.465+46.9206C235.04+46.1657+234.545+45.5052+233.978+44.939L233.412+44.939C232.563+44.939+231.973+45.2928+231.643+46.0006C231.407+45.859+231.171+45.6821+230.935+45.4698C230.699+45.2575+230.44+45.0805+230.157+44.939C229.072+45.2693+227.939+45.5523+226.76+45.7883C225.58+46.0242+224.4+46.1421+223.221+46.1421L222.23+46.1421C221.947+46.1421+221.64+46.0949+221.31+46.0006C220.838+46.1893+220.413+46.4134+220.036+46.6729C219.659+46.9324+219.234+47.0622+218.762+47.0622C218.479+47.0622+218.149+46.9678+217.771+46.7791C217.488+46.7791+217.358+46.8971+217.382+47.133C217.406+47.3689+217.252+47.4868+216.922+47.4868L216.285+47.4868C215.624+47.4868+214.976+47.5104+214.339+47.5576C213.702+47.6048+213.053+47.6284+212.392+47.6284C211.496+47.6284+210.576+47.5104+209.632+47.2745C209.396+47.4161+209.137+47.4868+208.854+47.4868C208.665+47.5812+208.523+47.7345+208.429+47.9469C208.335+48.1592+208.24+48.3479+208.146+48.5131C208.052+48.6782+207.922+48.8197+207.757+48.9377C207.592+49.0557+207.368+49.091+207.084+49.0439C206.99+49.6101+206.754+50.0583+206.377+50.3886C205.999+50.7188+205.81+51.2143+205.81+51.8748C205.291+52.1579+204.867+52.5118+204.537+52.9364C204.206+53.3611+203.876+53.8093+203.546+54.2811C203.215+54.753+202.873+55.2012+202.519+55.6258C202.166+56.0505+201.729+56.3808+201.21+56.6167C200.974+56.8998+200.903+57.348+200.998+57.9614C200.479+58.386+199.842+58.7635+199.087+59.0938C198.332+59.424+197.624+59.5892+196.964+59.5892C195.595+59.5892+194.652+58.8578+194.133+57.3952C194.133+56.9234+194.168+56.4161+194.239+55.8735C194.31+55.3309+194.416+54.8119+194.557+54.3165C194.699+53.8211+194.911+53.3729+195.194+52.9718C195.477+52.5708+195.879+52.2759+196.398+52.0871C196.398+51.6625+196.256+51.3676+195.973+51.2025C195.69+51.0373+195.572+50.7424+195.619+50.3178C196.893+49.7044+198.002+48.9023+198.945+47.9115C199.889+46.9206+200.75+45.8708+201.529+44.762C202.307+43.6533+203.097+42.5327+203.9+41.4003C204.702+40.2679+205.598+39.2535+206.589+38.357L206.589+36.8708C208.004+35.3609+208.925+33.6623+209.349+31.775C209.868+31.6807+210.21+31.4448+210.375+31.0673C210.541+30.6898+210.623+30.2416+210.623+29.7226C210.859+29.7226+211.012+29.6164+211.083+29.4041C211.154+29.1918+211.354+29.1328+211.685+29.2272C212.109+28.0948+212.581+27.0568+213.1+26.1131C213.619+25.1695+214.138+24.214+214.657+23.2468C215.176+22.2795+215.636+21.2769+216.037+20.2389C216.438+19.2009+216.733+18.0449+216.922+16.771C217.583+16.7238+217.948+16.4053+218.019+15.8155C218.09+15.2257+218.172+14.6949+218.267+14.2231C218.974+13.5625+219.505+12.784+219.859+11.8876C220.213+10.9911+220.531+10.0592+220.815+9.092C221.098+8.12476+221.416+7.15751+221.77+6.19027C222.124+5.22303+222.631+4.36194+223.292+3.60702L223.292+3.3947C223.292+3.15879+223.197+3.00544+223.009+2.93467C222.82+2.8639+222.725+2.71055+222.725+2.47464C222.773+2.42746+222.796+2.38027+222.796+2.33309C223.362+2.09718+223.787+1.70792+224.07+1.16532C224.353+0.622723+224.778+0.233466+225.344-0.00244675C226.335+0.799657+227.208+1.28328+227.963+1.44842C228.718+1.61356+229.708+1.74331+230.935+1.83767C231.549+2.49823+231.891+3.28854+231.961+4.2086C232.032+5.12866+232.186+6.03693+232.421+6.93339C232.799+8.44324+233.212+9.91769+233.66+11.3568C234.108+12.7958+234.45+14.2703+234.686+15.7801C234.828+16.6766+235.087+17.5259+235.465+18.328C235.842+19.1301+236.102+19.9558+236.243+20.8051C236.338+21.4656+236.338+22.2088+236.243+23.0345C236.149+23.8602+236.243+24.5797+236.526+25.1931L237.022+26.3254C237.258+26.8445+237.458+27.3871+237.623+27.9532C237.788+28.5194+237.942+29.0856+238.083+29.6518C238.461+31.0673+238.803+32.5889+239.11+34.2167C239.416+35.8445+239.9+37.319+240.56+38.6401C240.796+39.1119+241.162+39.4422+241.657+39.6309C242.153+39.8197+242.707+39.9494+243.321+40.0202C243.934+40.091+244.536+40.1146+245.125+40.091C245.715+40.0674+246.222+40.0556+246.647+40.0556L247.355+40.0556C247.638+40.0556+247.921+40.1028+248.204+40.1971C248.393+40.5746+248.487+40.9049+248.487+41.188C248.487+41.7542+248.298+42.2024+247.921+42.5327C247.543+42.8629+247.355+43.2404+247.355+43.665C247.355+43.901+247.449+44.1605+247.638+44.4436C247.449+44.3964+247.166+44.3728+246.789+44.3728C245.703+44.3728+244.642+44.5615+243.604+44.939C243.981+45.7411+244.488+46.4134+245.125+46.956C245.762+47.4986+246.435+48.0058+247.142+48.4777C247.614+48.1002+248.11+47.9115+248.629+47.9115C249.195+47.9115+249.726+48.0412+250.221+48.3007C250.717+48.5602+251.247+48.69+251.814+48.69C252.238+48.69+252.545+48.6192+252.734+48.4777C253.111+48.9023+253.418+49.3388+253.654+49.787C253.89+50.2352+254.196+50.6481+254.574+51.0255ZM232.421+39.7017C232.327+38.8996+232.174+38.3216+231.961+37.9677C231.749+37.6139+231.572+37.1774+231.431+36.6584C231.242+35.9979+231.112+35.2901+231.041+34.5352C230.971+33.7803+230.864+33.049+230.723+32.3412C230.393+30.737+230.027+29.1328+229.626+27.5286C229.225+25.9244+228.718+24.3674+228.104+22.8575C228.293+22.5744+228.387+22.3149+228.387+22.079L228.387+21.8667C227.963+21.3949+227.656+20.8169+227.467+20.1327C227.279+19.4486+227.102+18.7644+226.936+18.0803C226.771+17.3961+226.559+16.7592+226.3+16.1694C226.04+15.5796+225.627+15.096+225.061+14.7185C224.919+15.0016+224.849+15.3319+224.849+15.7094C224.849+16.0396+224.884+16.3463+224.955+16.6294C225.026+16.9125+225.061+17.2192+225.061+17.5495C224.589+17.7854+224.247+18.1511+224.035+18.6465C223.822+19.1419+223.48+19.5311+223.009+19.8142C222.631+21.3241+222.088+22.7514+221.381+24.0961C220.673+25.4408+219.93+26.7737+219.151+28.0948C218.373+29.4159+217.63+30.7488+216.922+32.0935C216.214+33.4382+215.648+34.8419+215.223+36.3046C214.61+36.7292+214.197+37.2718+213.985+37.9324C213.773+38.5929+213.666+39.2535+213.666+39.914C214.091+40.1499+214.575+40.2797+215.117+40.3033C215.66+40.3269+216.191+40.3387+216.71+40.3387C217.229+40.3387+217.724+40.3859+218.196+40.4802C218.668+40.5746+219.092+40.8105+219.47+41.188C220.083+40.9992+220.756+40.8695+221.487+40.7987C222.218+40.7279+222.82+40.5274+223.292+40.1971C224.235+40.5274+225.25+40.6925+226.335+40.6925C226.901+40.6925+227.456+40.6454+227.998+40.551C228.541+40.4566+229.072+40.3387+229.591+40.1971C230.015+40.2915+230.345+40.4448+230.581+40.6572C230.817+40.8695+231.171+40.952+231.643+40.9049C231.879+40.7161+232.02+40.5156+232.068+40.3033C232.115+40.091+232.233+39.8904+232.421+39.7017Z" opacity="1"/>
<path d="M322.092+47.2745C321.856+48.0294+321.785+48.7844+321.88+49.5393C321.738+49.728+321.573+49.846+321.384+49.8931C321.196+49.9403+321.007+49.9993+320.818+50.0701C320.629+50.1409+320.476+50.2352+320.358+50.3532C320.24+50.4711+320.228+50.6953+320.323+51.0255C318.766+51.1199+317.279+51.4502+315.864+52.0164C314.448+52.5826+313.057+53.1959+311.688+53.8565C310.98+53.6206+310.367+53.3375+309.848+53.0072C309.329+52.6769+308.669+52.4646+307.866+52.3702C307.064+50.766+306.321+49.0792+305.637+47.3099C304.953+45.5406+304.611+43.7594+304.611+41.9665C304.611+40.6454+304.847+39.4422+305.319+38.357C305.319+36.9415+305.437+35.5496+305.672+34.1813C305.908+32.813+306.18+31.4565+306.486+30.1118C306.793+28.7671+307.064+27.4106+307.3+26.0423C307.536+24.6741+307.654+23.2822+307.654+21.8667L307.654+20.3097C307.56+20.3097+307.442+20.4158+307.3+20.6281C307.159+20.8405+307.029+21.0764+306.911+21.3359C306.793+21.5954+306.687+21.8431+306.593+22.079C306.498+22.3149+306.427+22.4565+306.38+22.5037C305.578+23.117+304.953+23.8837+304.505+24.8038C304.056+25.7239+303.573+26.5849+303.054+27.3871C302.393+28.3779+301.697+29.3451+300.966+30.2888C300.235+31.2324+299.326+31.9638+298.241+32.4828L298.241+32.6243C298.241+32.8602+298.17+33.0254+298.029+33.1197C297.887+33.2141+297.864+33.45+297.958+33.8275C296.779+34.2049+295.682+34.7475+294.667+35.4553C293.653+36.163+292.815+37.0595+292.155+38.1447C291.211+38.3806+290.326+38.6991+289.501+39.1001C288.675+39.5012+287.837+39.9376+286.988+40.4094C286.611+40.5982+286.21+40.8341+285.785+41.1172C285.36+41.4003+284.936+41.589+284.511+41.6834C284.134+41.8249+283.626+41.9193+282.989+41.9665C282.352+42.0137+281.692+42.0608+281.008+42.108C280.324+42.1552+279.651+42.1788+278.991+42.1788L277.434+42.1788C277.198+42.1788+276.891+42.0608+276.514+41.8249C276.136+41.589+275.723+41.3295+275.275+41.0464C274.827+40.7633+274.367+40.492+273.895+40.2325C273.423+39.973+272.975+39.7961+272.55+39.7017C272.173+38.475+271.642+37.378+270.958+36.4107C270.274+35.4435+269.554+34.4644+268.799+33.4736C268.563+32.3412+268.245+31.1617+267.844+29.9349C267.443+28.7082+266.747+27.6937+265.756+26.8916C265.992+26.5614+266.11+26.1839+266.11+25.7593C266.11+25.2402+265.992+24.7448+265.756+24.273C265.52+23.8012+265.402+23.2822+265.402+22.716C265.402+22.3385+265.426+22.0554+265.473+21.8667C264.954+22.4329+264.588+23.1524+264.376+24.0253C264.164+24.8982+264.057+25.6885+264.057+26.3962C264.057+26.9624+264.128+27.4814+264.27+27.9532C263.798+28.6138+263.503+29.4395+263.385+30.4303C263.267+31.4212+263.208+32.294+263.208+33.049C263.208+33.9926+263.279+34.9127+263.42+35.8091C262.666+36.5641+262.288+37.4841+262.288+38.5693C262.288+39.1827+262.43+39.7253+262.713+40.1971C262.713+40.3859+262.666+40.5274+262.571+40.6218C262.477+40.7161+262.371+40.7869+262.253+40.8341C262.135+40.8813+262.017+40.9403+261.899+41.011C261.781+41.0818+261.722+41.2116+261.722+41.4003C261.722+41.6362+261.734+41.8957+261.757+42.1788C261.781+42.4619+261.793+42.745+261.793+43.0281C261.793+43.6886+261.769+44.3728+261.722+45.0805C261.675+45.7883+261.651+46.4724+261.651+47.133C261.651+48.5013+261.781+49.4803+262.04+50.0701C262.3+50.6599+262.63+51.0963+263.031+51.3794C263.432+51.6625+263.869+51.9456+264.34+52.2287C264.812+52.5118+265.284+53.0544+265.756+53.8565C265.614+54.2811+265.367+54.6232+265.013+54.8827C264.659+55.1422+264.329+55.4017+264.022+55.6612C263.715+55.9207+263.444+56.2156+263.208+56.5459C262.972+56.8762+262.878+57.348+262.925+57.9614L262.571+57.9614C261.958+57.9614+261.368+58.0557+260.802+58.2445C260.236+58.4332+259.646+58.5276+259.032+58.5276C258.891+58.5276+258.749+58.5158+258.608+58.4922C258.466+58.4686+258.325+58.4568+258.183+58.4568L257.475+58.0321C257.24+57.8906+257.004+57.8198+256.768+57.8198C256.532+57.8198+256.225+57.867+255.848+57.9614C255.187+55.8382+254.68+53.6442+254.326+51.3794C253.972+49.1146+253.795+46.8971+253.795+44.7267C253.795+44.4907+253.854+44.243+253.972+43.9835C254.09+43.724+254.267+43.6415+254.503+43.7358L254.503+42.3911C254.503+40.9285+254.633+39.5012+254.892+38.1093C255.152+36.7174+255.281+35.2665+255.281+33.7567C255.281+33.3321+255.27+32.9074+255.246+32.4828C255.222+32.0581+255.187+31.6571+255.14+31.2796C255.376+30.4775+255.624+29.6636+255.883+28.8379C256.143+28.0122+256.272+27.1511+256.272+26.2547C256.272+25.8772+256.201+25.429+256.06+24.91C256.437+24.6269+256.721+24.2612+256.909+23.813C257.098+23.3647+257.24+22.8693+257.334+22.3267C257.428+21.7841+257.499+21.2533+257.546+20.7343C257.593+20.2153+257.641+19.7435+257.688+19.3188C258.16+18.3752+258.419+17.3607+258.466+16.2755C258.513+15.1903+258.749+14.1759+259.174+13.2323C259.127+13.0435+259.103+12.7133+259.103+12.2414C259.103+11.2978+259.257+10.3423+259.563+9.37509C259.87+8.40785+260.495+7.66473+261.439+7.14572C262.288+7.47599+263.279+7.64113+264.411+7.64113C265.496+7.64113+266.534+7.47599+267.525+7.14572C267.808+7.24008+268.068+7.34624+268.304+7.4642C268.54+7.58216+268.787+7.70011+269.047+7.81807C269.306+7.93603+269.578+8.03039+269.861+8.10116C270.144+8.17194+270.474+8.18373+270.852+8.13655C271.324+9.50485+271.736+10.8967+272.09+12.3122C272.444+13.7277+272.715+15.1668+272.904+16.6294C272.999+17.2428+273.034+17.9033+273.01+18.6111C272.987+19.3188+273.022+19.9794+273.116+20.5928C273.164+20.9702+273.282+21.3123+273.47+21.619C273.659+21.9257+273.848+22.2677+274.037+22.6452C274.225+23.0227+274.379+23.4473+274.497+23.9191C274.615+24.391+274.65+24.9807+274.603+25.6885C275.122+26.9152+275.7+28.083+276.337+29.1918C276.974+30.3006+277.67+31.3976+278.425+32.4828C278.849+32.6243+279.227+32.8013+279.557+33.0136C279.887+33.2259+280.099+33.568+280.194+34.0398C280.618+34.0398+280.996+34.1106+281.326+34.2521L282.529+34.606C284.322+34.0398+285.986+33.2849+287.519+32.3412C289.052+31.3976+290.668+30.5955+292.367+29.9349C294.443+27.9061+296.236+25.6531+297.746+23.176C299.256+20.6989+300.765+18.2336+302.275+15.7801L302.275+14.2231C302.558+14.0816+302.806+13.9046+303.018+13.6923C303.231+13.48+303.502+13.3266+303.832+13.2323C303.88+12.6661+304.009+12.1117+304.222+11.5691C304.434+11.0265+304.67+10.5075+304.929+10.0121C305.189+9.51664+305.413+9.02122+305.602+8.52581C305.79+8.03039+305.885+7.49959+305.885+6.93339C305.885+6.60312+305.861+6.32002+305.814+6.08411C306.522+5.37637+307.371+5.0225+308.362+5.0225C309.306+5.0225+310.261+5.24662+311.228+5.69485C312.195+6.14309+313.104+6.55593+313.953+6.93339C314.472+8.06578+314.861+9.25714+315.121+10.5075C315.38+11.7578+315.557+13.0435+315.652+14.3647C315.746+15.6858+315.793+17.0069+315.793+18.328L315.793+23.3529C315.746+23.7304+315.616+24.0017+315.404+24.1668C315.192+24.332+315.038+24.5797+314.944+24.91L314.944+25.6177C314.944+25.8536+314.92+26.0895+314.873+26.3254C314.873+27.3163+314.755+28.3543+314.519+29.4395C314.283+30.8078+313.988+32.1879+313.635+33.5798C313.281+34.9717+313.104+36.3753+313.104+37.7908C313.104+38.3098+313.127+38.8288+313.174+39.3478C313.222+39.8668+313.316+40.3859+313.458+40.9049C313.222+41.3295+313.104+41.8721+313.104+42.5327C313.104+43.2876+313.233+43.9835+313.493+44.6205C313.752+45.2575+314.071+45.8826+314.448+46.496C315.109+46.496+315.77+46.4724+316.43+46.4252C317.091+46.378+317.775+46.3545+318.483+46.3545C319.143+46.3545+319.756+46.4134+320.323+46.5314C320.889+46.6493+321.479+46.8971+322.092+47.2745Z" opacity="1" fill="#ffffff"/>
<path opacity="1" fill="#ffffff" d="M377.083+51.0255C376.942+51.6861+376.647+52.2169+376.199+52.6179C375.75+53.019+375.22+53.3375+374.606+53.5734C373.993+53.8093+373.368+53.9626+372.731+54.0334C372.094+54.1042+371.516+54.1396+370.997+54.1396C370.761+54.1396+370.537+54.1278+370.324+54.1042C370.112+54.0806+369.888+54.0688+369.652+54.0688C369.416+54.0688+369.298+54.1868+369.298+54.4227C369.298+54.6586+369.18+54.8237+368.944+54.9181C368.708+54.8237+368.472+54.753+368.237+54.7058C368.001+54.6586+367.765+54.635+367.529+54.635C367.199+54.635+366.88+54.6586+366.573+54.7058C366.267+54.753+365.972+54.7765+365.689+54.7765C365.311+54.7765+365.04+54.7294+364.875+54.635C364.71+54.5406+364.568+54.4345+364.45+54.3165C364.332+54.1986+364.214+54.0688+364.096+53.9273C363.978+53.7857+363.801+53.6678+363.565+53.5734C363.235+53.4318+362.964+53.4083+362.752+53.5026C362.539+53.597+362.221+53.4554+361.796+53.078C361.23+52.6061+360.746+52.0282+360.345+51.344C359.944+50.6599+359.555+49.9403+359.178+49.1854C358.8+48.4305+358.399+47.6756+357.974+46.9206C357.55+46.1657+357.054+45.5052+356.488+44.939L355.922+44.939C355.073+44.939+354.483+45.2928+354.153+46.0006C353.917+45.859+353.681+45.6821+353.445+45.4698C353.209+45.2575+352.949+45.0805+352.666+44.939C351.581+45.2693+350.449+45.5523+349.269+45.7883C348.09+46.0242+346.91+46.1421+345.73+46.1421L344.74+46.1421C344.457+46.1421+344.15+46.0949+343.82+46.0006C343.348+46.1893+342.923+46.4134+342.546+46.6729C342.168+46.9324+341.744+47.0622+341.272+47.0622C340.989+47.0622+340.658+46.9678+340.281+46.7791C339.998+46.7791+339.868+46.8971+339.892+47.133C339.915+47.3689+339.762+47.4868+339.432+47.4868L338.795+47.4868C338.134+47.4868+337.485+47.5104+336.848+47.5576C336.211+47.6048+335.563+47.6284+334.902+47.6284C334.006+47.6284+333.086+47.5104+332.142+47.2745C331.906+47.4161+331.646+47.4868+331.363+47.4868C331.175+47.5812+331.033+47.7345+330.939+47.9469C330.844+48.1592+330.75+48.3479+330.656+48.5131C330.561+48.6782+330.432+48.8197+330.266+48.9377C330.101+49.0557+329.877+49.091+329.594+49.0439C329.5+49.6101+329.264+50.0583+328.886+50.3886C328.509+50.7188+328.32+51.2143+328.32+51.8748C327.801+52.1579+327.376+52.5118+327.046+52.9364C326.716+53.3611+326.386+53.8093+326.055+54.2811C325.725+54.753+325.383+55.2012+325.029+55.6258C324.675+56.0505+324.239+56.3808+323.72+56.6167C323.484+56.8998+323.413+57.348+323.507+57.9614C322.988+58.386+322.351+58.7635+321.597+59.0938C320.842+59.424+320.134+59.5892+319.473+59.5892C318.105+59.5892+317.161+58.8578+316.642+57.3952C316.642+56.9234+316.678+56.4161+316.749+55.8735C316.819+55.3309+316.925+54.8119+317.067+54.3165C317.209+53.8211+317.421+53.3729+317.704+52.9718C317.987+52.5708+318.388+52.2759+318.907+52.0871C318.907+51.6625+318.766+51.3676+318.483+51.2025C318.199+51.0373+318.081+50.7424+318.129+50.3178C319.403+49.7044+320.511+48.9023+321.455+47.9115C322.399+46.9206+323.26+45.8708+324.038+44.762C324.817+43.6533+325.607+42.5327+326.409+41.4003C327.211+40.2679+328.108+39.2535+329.099+38.357L329.099+36.8708C330.514+35.3609+331.434+33.6623+331.859+31.775C332.378+31.6807+332.72+31.4448+332.885+31.0673C333.05+30.6898+333.133+30.2416+333.133+29.7226C333.369+29.7226+333.522+29.6164+333.593+29.4041C333.664+29.1918+333.864+29.1328+334.194+29.2272C334.619+28.0948+335.091+27.0568+335.61+26.1131C336.129+25.1695+336.648+24.214+337.167+23.2468C337.686+22.2795+338.146+21.2769+338.547+20.2389C338.948+19.2009+339.243+18.0449+339.432+16.771C340.092+16.7238+340.458+16.4053+340.529+15.8155C340.599+15.2257+340.682+14.6949+340.776+14.2231C341.484+13.5625+342.015+12.784+342.369+11.8876C342.723+10.9911+343.041+10.0592+343.324+9.092C343.607+8.12476+343.926+7.15751+344.28+6.19027C344.633+5.22303+345.141+4.36194+345.801+3.60702L345.801+3.3947C345.801+3.15879+345.707+3.00544+345.518+2.93467C345.329+2.8639+345.235+2.71055+345.235+2.47464C345.282+2.42746+345.306+2.38027+345.306+2.33309C345.872+2.09718+346.297+1.70792+346.58+1.16532C346.863+0.622723+347.287+0.233466+347.854-0.00244675C348.845+0.799657+349.717+1.28328+350.472+1.44842C351.227+1.61356+352.218+1.74331+353.445+1.83767C354.058+2.49823+354.4+3.28854+354.471+4.2086C354.542+5.12866+354.695+6.03693+354.931+6.93339C355.309+8.44324+355.721+9.91769+356.17+11.3568C356.618+12.7958+356.96+14.2703+357.196+15.7801C357.337+16.6766+357.597+17.5259+357.974+18.328C358.352+19.1301+358.611+19.9558+358.753+20.8051C358.847+21.4656+358.847+22.2088+358.753+23.0345C358.659+23.8602+358.753+24.5797+359.036+25.1931L359.531+26.3254C359.767+26.8445+359.968+27.3871+360.133+27.9532C360.298+28.5194+360.451+29.0856+360.593+29.6518C360.97+31.0673+361.313+32.5889+361.619+34.2167C361.926+35.8445+362.41+37.319+363.07+38.6401C363.306+39.1119+363.672+39.4422+364.167+39.6309C364.662+39.8197+365.217+39.9494+365.83+40.0202C366.444+40.091+367.045+40.1146+367.635+40.091C368.225+40.0674+368.732+40.0556+369.157+40.0556L369.864+40.0556C370.147+40.0556+370.431+40.1028+370.714+40.1971C370.902+40.5746+370.997+40.9049+370.997+41.188C370.997+41.7542+370.808+42.2024+370.431+42.5327C370.053+42.8629+369.864+43.2404+369.864+43.665C369.864+43.901+369.959+44.1605+370.147+44.4436C369.959+44.3964+369.676+44.3728+369.298+44.3728C368.213+44.3728+367.151+44.5615+366.113+44.939C366.491+45.7411+366.998+46.4134+367.635+46.956C368.272+47.4986+368.944+48.0058+369.652+48.4777C370.124+48.1002+370.619+47.9115+371.138+47.9115C371.704+47.9115+372.235+48.0412+372.731+48.3007C373.226+48.5602+373.757+48.69+374.323+48.69C374.748+48.69+375.054+48.6192+375.243+48.4777C375.621+48.9023+375.927+49.3388+376.163+49.787C376.399+50.2352+376.706+50.6481+377.083+51.0255ZM354.931+39.7017C354.837+38.8996+354.683+38.3216+354.471+37.9677C354.259+37.6139+354.082+37.1774+353.94+36.6584C353.752+35.9979+353.622+35.2901+353.551+34.5352C353.48+33.7803+353.374+33.049+353.233+32.3412C352.902+30.737+352.537+29.1328+352.136+27.5286C351.734+25.9244+351.227+24.3674+350.614+22.8575C350.803+22.5744+350.897+22.3149+350.897+22.079L350.897+21.8667C350.472+21.3949+350.166+20.8169+349.977+20.1327C349.788+19.4486+349.611+18.7644+349.446+18.0803C349.281+17.3961+349.069+16.7592+348.809+16.1694C348.55+15.5796+348.137+15.096+347.571+14.7185C347.429+15.0016+347.358+15.3319+347.358+15.7094C347.358+16.0396+347.394+16.3463+347.464+16.6294C347.535+16.9125+347.571+17.2192+347.571+17.5495C347.099+17.7854+346.757+18.1511+346.544+18.6465C346.332+19.1419+345.99+19.5311+345.518+19.8142C345.141+21.3241+344.598+22.7514+343.89+24.0961C343.183+25.4408+342.439+26.7737+341.661+28.0948C340.882+29.4159+340.139+30.7488+339.432+32.0935C338.724+33.4382+338.158+34.8419+337.733+36.3046C337.12+36.7292+336.707+37.2718+336.494+37.9324C336.282+38.5929+336.176+39.2535+336.176+39.914C336.601+40.1499+337.084+40.2797+337.627+40.3033C338.169+40.3269+338.7+40.3387+339.219+40.3387C339.738+40.3387+340.234+40.3859+340.706+40.4802C341.177+40.5746+341.602+40.8105+341.979+41.188C342.593+40.9992+343.265+40.8695+343.997+40.7987C344.728+40.7279+345.329+40.5274+345.801+40.1971C346.745+40.5274+347.759+40.6925+348.845+40.6925C349.411+40.6925+349.965+40.6454+350.508+40.551C351.05+40.4566+351.581+40.3387+352.1+40.1971C352.525+40.2915+352.855+40.4448+353.091+40.6572C353.327+40.8695+353.681+40.952+354.153+40.9049C354.388+40.7161+354.53+40.5156+354.577+40.3033C354.624+40.091+354.742+39.8904+354.931+39.7017Z"/>
<path opacity="1" d="M423.086+9.69358C422.992+10.2598+422.862+10.7434+422.697+11.1444C422.532+11.5455+422.497+12.0763+422.591+12.7369C422.119+12.784+421.753+12.9374+421.494+13.1969C421.234+13.4564+421.022+13.7513+420.857+14.0816C420.692+14.4118+420.527+14.7539+420.362+15.1078C420.196+15.4616+419.996+15.7801+419.76+16.0632C420.137+17.7618+420.35+19.484+420.397+21.2297C420.444+22.9755+420.562+24.6976+420.751+26.3962C420.987+28.5666+421.352+30.7016+421.848+32.8013C422.343+34.9009+422.591+37.0359+422.591+39.2063C422.591+39.8668+422.579+40.4802+422.556+41.0464C422.532+41.6126+422.52+42.2024+422.52+42.8158C422.52+43.1932+422.532+43.5825+422.556+43.9835C422.579+44.3846+422.591+44.7738+422.591+45.1513C422.591+46.5196+422.414+47.8879+422.06+49.2562C421.706+50.6245+421.435+51.9928+421.246+53.3611C420.68+53.8801+420.196+54.4463+419.795+55.0596C419.394+55.673+418.981+56.2392+418.557+56.7582C418.132+57.2772+417.637+57.7373+417.071+58.1383C416.504+58.5394+415.797+58.8107+414.947+58.9522C414.806+59.424+414.534+59.7779+414.133+60.0138C413.732+60.2497+413.39+60.58+413.107+61.0047L412.966+61.0047C411.786+61.0047+410.772+60.8395+409.922+60.5092C409.073+60.179+408.283+59.8015+407.551+59.3769C406.82+58.9522+406.077+58.504+405.322+58.0321C404.567+57.5603+403.694+57.1829+402.703+56.8998C401.382+55.8146+400.179+54.6232+399.094+53.3257C398.009+52.0282+396.782+50.8604+395.414+49.8224C395.083+48.8787+394.647+48.1002+394.104+47.4868C393.562+46.8735+393.031+46.1657+392.512+45.3636C392.276+45.0333+392.099+44.7267+391.981+44.4436C391.863+44.1605+391.71+43.8302+391.521+43.4527C391.38+43.0753+391.156+42.8158+390.849+42.6742C390.542+42.5327+390.271+42.3675+390.035+42.1788C389.657+40.7161+389.115+39.3714+388.407+38.1447C387.699+36.9179+386.874+35.7384+385.93+34.606C385.647+35.125+385.423+35.6794+385.258+36.2692C385.093+36.859+384.939+37.4487+384.798+38.0385C384.656+38.6283+384.479+39.2181+384.267+39.8079C384.055+40.3977+383.783+40.9285+383.453+41.4003L383.453+41.6126C383.453+41.8485+383.547+41.9901+383.736+42.0372C383.925+42.0844+384.019+42.226+384.019+42.4619C384.019+42.5091+384.007+42.5563+383.984+42.6034C383.96+42.6506+383.948+42.6978+383.948+42.745C383.712+42.9337+383.536+43.1696+383.418+43.4527C383.3+43.7358+383.052+43.901+382.674+43.9481C382.722+44.1841+382.745+44.42+382.745+44.6559L382.745+45.2928C382.745+46.6611+382.592+48.0294+382.285+49.3977C381.979+50.766+381.825+52.1579+381.825+53.5734L381.825+54.4935C381.825+54.8237+381.849+55.1304+381.896+55.4135C381.99+55.6966+382.132+55.9797+382.321+56.2628C382.509+56.5459+382.604+56.8054+382.604+57.0413C382.604+57.3716+382.462+57.6783+382.179+57.9614C382.509+58.1973+382.887+58.4568+383.311+58.7399C383.736+59.023+384.125+59.3415+384.479+59.6953C384.833+60.0492+385.128+60.4267+385.364+60.8277C385.6+61.2288+385.718+61.6652+385.718+62.137C385.718+62.9391+385.458+63.5053+384.939+63.8356C384.42+64.1659+383.795+64.4254+383.064+64.6141C382.332+64.8028+381.577+64.9798+380.799+65.1449C380.02+65.3101+379.372+65.605+378.853+66.0296L378.64+66.0296C378.074+66.0296+377.65+65.8645+377.366+65.5342C377.083+65.2039+376.659+65.0388+376.092+65.0388C375.196+63.5761+374.583+61.9365+374.252+60.12C373.922+58.3034+373.757+56.5695+373.757+54.9181C373.757+52.8892+373.934+50.8604+374.288+48.8315C374.642+46.8027+375.066+44.7974+375.562+42.8158C376.057+40.8341+376.6+38.8642+377.189+36.9061C377.779+34.9481+378.334+32.9782+378.853+30.9965L378.923+30.7842C378.923+30.5483+378.864+30.3831+378.746+30.2888C378.629+30.1944+378.57+30.0529+378.57+29.8641C378.57+29.7698+378.593+29.7226+378.64+29.7226C378.782+29.2508+378.935+28.8025+379.1+28.3779C379.266+27.9532+379.395+27.4814+379.49+26.9624C379.773+25.6413+379.973+24.2848+380.091+22.8929C380.209+21.501+380.28+20.1209+380.304+18.7526C380.327+17.3843+380.374+16.0042+380.445+14.6124C380.516+13.2205+380.669+11.8404+380.905+10.4721C381.283+10.0946+381.636+9.69358+381.967+9.26893C382.297+8.84429+382.722+8.46683+383.241+8.13655C384.184+8.18373+385.128+8.32528+386.072+8.56119C387.015+8.79711+387.912+9.17457+388.761+9.69358C389.327+11.7224+389.716+13.7513+389.929+15.7801C390.141+17.809+390.507+19.8378+391.026+21.8667L391.026+22.079C391.026+22.3149+391.156+22.4211+391.415+22.3975C391.675+22.3739+391.875+22.4565+392.017+22.6452C391.922+22.7867+391.863+22.9519+391.84+23.1406C391.816+23.3293+391.804+23.5181+391.804+23.7068L391.804+24.91C391.899+25.2874+392.017+25.6885+392.158+26.1131C392.3+26.5378+392.606+26.7973+393.078+26.8916C393.314+28.4015+393.668+29.7934+394.14+31.0673C394.612+32.3412+395.154+33.568+395.768+34.7475C396.381+35.9271+397.042+37.0949+397.749+38.2508C398.457+39.4068+399.188+40.6218+399.943+41.8957C401.123+42.7922+402.137+43.8184+402.987+44.9744C403.836+46.1303+404.697+47.2391+405.57+48.3007C406.443+49.3623+407.434+50.2942+408.542+51.0963C409.651+51.8984+411.102+52.3938+412.895+52.5826C413.131+52.3938+413.296+52.1343+413.39+51.804L413.744+50.8132C413.886+50.4829+414.039+50.188+414.204+49.9285C414.369+49.669+414.617+49.4685+414.947+49.327C415.042+48.0058+415.148+46.6611+415.266+45.2928C415.384+43.9246+415.679+42.627+416.15+41.4003C415.915+40.9756+415.797+40.4566+415.797+39.8433C415.797+39.3714+415.832+38.9232+415.903+38.4986C415.974+38.0739+416.009+37.6493+416.009+37.2246C416.009+36.3282+415.82+35.5968+415.443+35.0306C415.443+34.7004+415.466+34.3583+415.514+34.0044C415.561+33.6505+415.702+33.3085+415.938+32.9782C415.561+32.0345+415.266+31.0437+415.054+30.0057C414.841+28.9677+414.735+27.9061+414.735+26.8209C414.735+26.2075+414.806+25.5705+414.947+24.91C414.664+24.2022+414.476+23.3765+414.381+22.4329L414.098+19.5311C414.004+18.5403+413.862+17.6203+413.673+16.771C413.485+15.9217+413.131+15.2375+412.612+14.7185C412.895+14.2939+413.036+13.7985+413.036+13.2323C413.036+12.2886+412.895+11.3922+412.612+10.5429C412.329+9.69358+412.187+8.79711+412.187+7.85346C412.187+7.1929+412.329+6.53234+412.612+5.87179C413.65+5.91897+414.676+6.02513+415.69+6.19027C416.705+6.35541+417.708+6.43798+418.698+6.43798C418.981+6.81544+419.312+7.12213+419.689+7.35804C420.067+7.59395+420.468+7.81807+420.892+8.03039C421.317+8.24271+421.73+8.46683+422.131+8.70274C422.532+8.93866+422.85+9.26893+423.086+9.69358Z" fill="#ffffff"/>
<path fill="#ffffff" opacity="1" d="M477.724+21.3005C477.724+21.7723+477.559+22.079+477.228+22.2206C476.898+22.3621+476.733+22.6452+476.733+23.0698C476.733+23.2114+476.78+23.3293+476.875+23.4237C476.969+23.5181+477.016+23.6596+477.016+23.8484L477.016+24.1315C476.45+26.868+475.636+29.2508+474.574+31.2796C473.513+33.3085+472.274+35.1722+470.859+36.8708C469.443+38.5693+467.851+40.1735+466.081+41.6834C464.312+43.1932+462.413+44.7738+460.384+46.4252C459.818+46.8971+459.24+47.3689+458.65+47.8407C458.06+48.3125+457.506+48.8079+456.987+49.327L455.43+50.8132C455.383+50.8604+455.123+50.9666+454.651+51.1317C454.18+51.2968+453.897+51.403+453.802+51.4502C453.142+51.7333+452.446+52.0635+451.714+52.441C450.983+52.8185+450.358+53.2903+449.839+53.8565C448.895+53.8565+448.093+53.998+447.433+54.2811C446.772+54.5642+446.041+54.9417+445.239+55.4135C445.003+55.4135+444.802+55.3663+444.637+55.272C444.472+55.1776+444.295+55.0832+444.106+54.9889C443.917+54.8945+443.717+54.8355+443.505+54.8119C443.292+54.7883+443.021+54.8237+442.691+54.9181C442.125+53.9744+441.511+53.1723+440.851+52.5118C440.19+51.8512+439.294+51.4502+438.161+51.3086C438.02+50.5065+437.689+49.8814+437.17+49.4331C436.651+48.9849+436.132+48.5013+435.613+47.9823C435.519+47.6992+435.448+47.3689+435.401+46.9914C435.354+46.614+435.259+46.2601+435.118+45.9298C434.976+45.5995+434.788+45.3164+434.552+45.0805C434.316+44.8446+433.986+44.7267+433.561+44.7267C433.514+44.4436+433.632+44.302+433.915+44.302C434.198+44.302+434.339+44.1841+434.339+43.9481C434.339+43.665+434.292+43.382+434.198+43.0989C434.103+42.8158+434.056+42.5091+434.056+42.1788C434.056+41.9429+434.08+41.7306+434.127+41.5418C434.174+41.3531+434.245+41.1408+434.339+40.9049C434.198+39.6309+434.127+38.3334+434.127+37.0123C434.127+34.4644+434.304+31.952+434.658+29.4749C435.012+26.9978+435.189+24.4853+435.189+21.9375C435.189+20.8051+435.13+19.6727+435.012+18.5403C434.894+17.4079+434.67+16.2991+434.339+15.2139C433.254+15.4499+432.169+15.7212+431.084+16.0278C429.999+16.3345+428.984+16.7474+428.041+17.2664C427.522+16.9361+426.967+16.7356+426.377+16.6648C425.788+16.594+425.21+16.4643+424.643+16.2755C424.313+15.615+424.148+14.9308+424.148+14.2231C424.148+13.5625+424.266+12.9256+424.502+12.3122L425.21+10.4721C426.342+10.2362+427.463+9.88231+428.571+9.41048C429.68+8.93866+430.801+8.51401+431.933+8.13655C432.311+8.04219+432.794+7.92423+433.384+7.78268C433.974+7.64113+434.387+7.52318+434.622+7.42881C434.953+7.28726+435.177+7.01596+435.295+6.61491C435.413+6.21386+435.59+5.87179+435.826+5.58869L437.029+5.58869C437.312+5.58869+437.619+5.60049+437.949+5.62408C438.279+5.64767+438.586+5.73024+438.869+5.87179C440.567+5.44714+442.266+5.17584+443.965+5.05789C445.663+4.93993+447.409+4.763+449.202+4.52708C449.391+4.52708+449.674+4.50349+450.051+4.45631L451.254+4.24399C451.679+4.14962+452.068+4.06705+452.422+3.99628C452.776+3.9255+453.024+3.89012+453.165+3.89012C453.307+3.89012+453.378+3.96089+453.378+4.10244L454.581+4.10244C456.61+4.10244+458.591+4.36194+460.526+4.88095L466.329+6.43798C467.131+7.09853+467.933+7.7355+468.736+8.34887C469.538+8.96225+470.434+9.50485+471.425+9.97667C471.661+10.7316+472.026+11.3332+472.522+11.7814C473.017+12.2296+473.572+12.7133+474.185+13.2323C474.421+13.8456+474.739+14.4944+475.141+15.1786C475.542+15.8627+475.931+16.5586+476.308+17.2664C476.686+17.9741+477.016+18.6701+477.299+19.3542C477.582+20.0384+477.724+20.6871+477.724+21.3005ZM471.142+22.3621C470.623+21.2769+470.127+20.1445+469.656+18.965C469.184+17.7854+468.594+16.7238+467.886+15.7801C467.037+15.5442+466.176+15.2493+465.303+14.8955C464.43+14.5416+463.829+13.9164+463.498+13.0199C463.404+13.0671+463.239+13.0907+463.003+13.0907C462.578+13.0907+462.201+12.9256+461.87+12.5953C461.54+12.265+461.163+12.0527+460.738+11.9583C460.361+11.9112+459.853+11.8404+459.216+11.746C458.579+11.6517+457.907+11.5809+457.199+11.5337C456.492+11.4865+455.796+11.4393+455.112+11.3922C454.427+11.345+453.897+11.3214+453.519+11.3214C453.142+11.3214+452.752+11.3332+452.351+11.3568C451.95+11.3804+451.537+11.4157+451.113+11.4629C450.735+11.4629+450.499+11.5219+450.405+11.6399C450.311+11.7578+450.122+11.864+449.839+11.9583C449.603+11.864+449.343+11.8168+449.06+11.8168L448.211+11.8168C447.22+11.8168+446.241+11.9701+445.274+12.2768C444.307+12.5835+443.351+12.9964+442.408+13.5154L442.408+13.7985C442.408+14.1759+442.573+14.3882+442.903+14.4354C443.233+14.4826+443.422+14.6713+443.469+15.0016C443.233+15.0016+443.045+15.0134+442.903+15.037C442.761+15.0606+442.691+15.2375+442.691+15.5678C442.691+16.0396+442.75+16.5586+442.868+17.1248C442.986+17.691+443.045+18.2572+443.045+18.8234C443.045+19.2481+442.997+19.7435+442.903+20.3097C442.809+20.8759+442.573+21.3241+442.195+21.6544C442.667+22.079+442.903+22.6452+442.903+23.3529C442.903+23.8248+442.809+24.3202+442.62+24.8392C442.431+25.3582+442.195+25.8064+441.912+26.1839C441.818+28.1656+441.629+30.1708+441.346+32.1997C441.063+34.2285+440.921+36.2338+440.921+38.2155C440.921+39.2063+440.98+40.1735+441.098+41.1172C441.216+42.0608+441.417+43.0045+441.7+43.9481C442.219+44.4672+442.773+44.8682+443.363+45.1513C443.953+45.4344+444.578+45.7175+445.239+46.0006L445.239+46.2129C445.239+46.3545+445.144+46.496+444.955+46.6375C444.767+46.7791+444.672+46.9678+444.672+47.2037C444.672+47.3925+444.767+47.4868+444.955+47.4868C446.937+46.9206+448.801+46.2365+450.547+45.4344C452.292+44.6323+453.92+43.5471+455.43+42.1788C455.572+42.0372+455.713+41.9665+455.855+41.9665C455.949+41.9665+456.079+41.9901+456.244+42.0372C456.409+42.0844+456.562+42.1316+456.704+42.1788L456.633+41.8957C456.633+41.6126+456.716+41.3531+456.881+41.1172C457.046+40.8813+457.247+40.669+457.482+40.4802L458.19+39.8433C458.426+39.6073+458.615+39.3714+458.756+39.1355C459.134+39.0412+459.405+38.8524+459.57+38.5693C459.735+38.2862+460.03+38.1447+460.455+38.1447C460.549+37.6257+460.809+37.2364+461.233+36.9769C461.658+36.7174+461.918+36.3282+462.012+35.8091C462.956+35.2901+463.793+34.6532+464.524+33.8982C465.256+33.1433+465.94+32.3412+466.577+31.4919C467.214+30.6426+467.815+29.758+468.382+28.8379C468.948+27.9179+469.538+27.0332+470.151+26.1839L470.151+25.9008C470.151+25.1459+470.281+24.5325+470.54+24.0607C470.8+23.5889+471+23.0227+471.142+22.3621Z"/>
<path opacity="1" d="M496.125+46.496C495.889+46.8735+495.606+47.2155+495.276+47.5222C494.945+47.8289+494.639+48.1474+494.356+48.4777C494.025+48.6192+493.66+48.69+493.259+48.69C492.858+48.69+492.48+48.6782+492.126+48.6546C491.772+48.631+491.442+48.631+491.135+48.6546C490.829+48.6782+490.581+48.7844+490.392+48.9731C490.015+48.8787+489.732+48.7018+489.543+48.4423C489.354+48.1828+489.024+48.0294+488.552+47.9823C488.363+47.9351+488.175+47.9351+487.986+47.9823C487.278+47.1801+486.63+46.3309+486.04+45.4344C485.45+44.5379+484.896+43.6886+484.377+42.8865C484.329+41.1408+484.188+39.3714+483.952+37.5785C483.905+37.1538+483.834+36.7292+483.74+36.3046C483.645+35.8799+483.574+35.4789+483.527+35.1014C483.527+34.6296+483.563+34.1695+483.633+33.7213C483.704+33.2731+483.763+32.8602+483.81+32.4828C483.999+31.1145+484.211+29.7698+484.447+28.4487C484.683+27.1275+484.896+25.7828+485.084+24.4145C485.273+23.1878+485.367+21.9021+485.367+20.5574C485.367+19.2127+485.155+17.9505+484.73+16.771L484.66+16.4171C484.754+16.0396+484.86+15.7212+484.978+15.4616C485.096+15.2021+485.179+14.9073+485.226+14.577C485.32+14.058+485.202+13.6805+484.872+13.4446C485.013+13.0671+485.249+12.8194+485.58+12.7015C485.91+12.5835+486.099+12.3122+486.146+11.8876C486.193+11.6988+486.193+11.5101+486.146+11.3214C486.523+11.1798+486.913+11.0501+487.314+10.9321C487.715+10.8142+488.104+10.8024+488.481+10.8967C489.095+10.9911+489.637+11.1916+490.109+11.4983C490.581+11.805+491.029+12.1471+491.454+12.5245C492.209+14.7893+492.516+17.1838+492.374+19.7081C492.232+22.2324+491.997+24.7684+491.666+27.3163C491.336+29.8641+491.124+32.353+491.029+34.7829C490.935+37.2128+491.312+39.4658+492.162+41.5418L492.303+41.6126C492.539+41.6598+492.728+41.5772+492.869+41.3649C493.011+41.1526+493.2+41.07+493.436+41.1172C493.624+41.2116+493.742+41.2587+493.789+41.2587C493.978+42.2024+494.285+43.0989+494.71+43.9481C495.134+44.7974+495.606+45.6467+496.125+46.496Z" fill="#ffffff"/>
</g>
</g>
</svg>
